<svg width="25" height="24" viewBox="0 0 25 24" fill="none" xmlns="http://www.w3.org/2000/svg">
<path fill-rule="evenodd" clip-rule="evenodd" d="M9.068 15.9991L8.1287 15.0578C7.99877 14.9276 7.99877 14.7164 8.1287 14.5862L12.3545 10.3322H8.78774C8.60392 10.3322 8.45489 10.1828 8.45489 9.99864V8.66447C8.45489 8.48026 8.60392 8.33093 8.78774 8.33093H15.4447C15.6285 8.33093 15.7776 8.48026 15.7776 8.66447V15.3353C15.7776 15.5195 15.6285 15.6688 15.4447 15.6688H14.1133C13.9295 15.6688 13.7805 15.5195 13.7805 15.3353V11.7657L9.53865 16.0024C9.40775 16.1317 9.19706 16.1302 9.068 15.9991Z" stroke="#6385FF"/>
<path fill-rule="evenodd" clip-rule="evenodd" d="M12.1164 19.6714C16.3445 19.6714 19.772 16.2368 19.772 11.9999C19.772 7.7631 16.3445 4.32847 12.1164 4.32847C7.88843 4.32847 4.46094 7.7631 4.46094 11.9999C4.46094 16.2368 7.88843 19.6714 12.1164 19.6714Z" stroke="#6385FF"/>
</svg>
