<svg width="24" height="24" viewBox="0 0 24 24" fill="none" xmlns="http://www.w3.org/2000/svg">
<path d="M21.6585 1.75H19.6098C19.2865 1.75 19.0244 1.52614 19.0244 1.25V1C19.0244 0.447715 18.5002 0 17.8537 0H14.3415C13.6949 0 13.1707 0.447715 13.1707 1V10.5C13.1703 10.7025 13.3129 10.8852 13.5319 10.9628C13.751 11.0403 14.0031 10.9974 14.1705 10.854L15.8903 9.384C15.9453 9.33698 16.0198 9.31055 16.0976 9.31055C16.1753 9.31055 16.2499 9.33698 16.3048 9.384L18.0246 10.854C18.192 10.9974 18.4442 11.0403 18.6632 10.9628C18.8822 10.8852 19.0248 10.7025 19.0244 10.5V4.25C19.0244 3.97386 19.2865 3.75 19.6098 3.75H21.0732C21.3965 3.75 21.6585 3.97386 21.6585 4.25V21.5C21.6585 21.7761 21.3965 22 21.0732 22H6.43902C6.11574 22 5.85366 21.7761 5.85366 21.5V4.25C5.85366 3.97386 6.11574 3.75 6.43902 3.75H11.122C11.2836 3.75 11.4146 3.63807 11.4146 3.5V2C11.4146 1.86193 11.2836 1.75 11.122 1.75H2.34146C1.04831 1.75 0 2.64543 0 3.75V22C0 23.1046 1.04831 24 2.34146 24H21.6585C22.9517 24 24 23.1046 24 22V3.75C24 2.64543 22.9517 1.75 21.6585 1.75Z" fill="#1F87FE"/>
<mask id="mask0_2281_23297" style="mask-type:alpha" maskUnits="userSpaceOnUse" x="0" y="0" width="24" height="24">
<path d="M21.6585 1.75H19.6098C19.2865 1.75 19.0244 1.52614 19.0244 1.25V1C19.0244 0.447715 18.5002 0 17.8537 0H14.3415C13.6949 0 13.1707 0.447715 13.1707 1V10.5C13.1703 10.7025 13.3129 10.8852 13.5319 10.9628C13.751 11.0403 14.0031 10.9974 14.1705 10.854L15.8903 9.384C15.9453 9.33698 16.0198 9.31055 16.0976 9.31055C16.1753 9.31055 16.2499 9.33698 16.3048 9.384L18.0246 10.854C18.192 10.9974 18.4442 11.0403 18.6632 10.9628C18.8822 10.8852 19.0248 10.7025 19.0244 10.5V4.25C19.0244 3.97386 19.2865 3.75 19.6098 3.75H21.0732C21.3965 3.75 21.6585 3.97386 21.6585 4.25V21.5C21.6585 21.7761 21.3965 22 21.0732 22H6.43902C6.11574 22 5.85366 21.7761 5.85366 21.5V4.25C5.85366 3.97386 6.11574 3.75 6.43902 3.75H11.122C11.2836 3.75 11.4146 3.63807 11.4146 3.5V2C11.4146 1.86193 11.2836 1.75 11.122 1.75H2.34146C1.04831 1.75 0 2.64543 0 3.75V22C0 23.1046 1.04831 24 2.34146 24H21.6585C22.9517 24 24 23.1046 24 22V3.75C24 2.64543 22.9517 1.75 21.6585 1.75Z" fill="white"/>
</mask>
<g mask="url(#mask0_2281_23297)">
</g>
</svg>
