<svg width="25" height="24" viewBox="0 0 25 24" fill="none" xmlns="http://www.w3.org/2000/svg">
<path fill-rule="evenodd" clip-rule="evenodd" d="M13.4102 4.49537C10.8735 4.49171 8.53446 5.86752 7.301 8.08883C6.06754 10.3101 6.13386 13.0272 7.47422 15.1854L5.42188 19.5047L9.73159 17.4475C12.252 19.0184 15.4876 18.8229 17.8014 16.9599C20.1152 15.0969 21.0026 11.9727 20.0145 9.16802C19.0264 6.36331 16.3784 4.4898 13.4102 4.49537Z" stroke="#6385FF" stroke-width="1.5"/>
<path d="M10.4137 11.2495C10.2758 11.2495 10.1641 11.3615 10.1641 11.4997C10.1641 11.6378 10.2758 11.7498 10.4137 11.7498C10.5516 11.7498 10.6633 11.6378 10.6633 11.4997C10.6633 11.3615 10.5516 11.2495 10.4137 11.2495" stroke="#6385FF" stroke-width="1.5"/>
<path d="M13.4137 11.2495C13.2758 11.2495 13.1641 11.3615 13.1641 11.4997C13.1641 11.6378 13.2758 11.7498 13.4137 11.7498C13.5516 11.7498 13.6633 11.6378 13.6633 11.4997C13.6633 11.3615 13.5516 11.2495 13.4137 11.2495" stroke="#6385FF" stroke-width="1.5"/>
<path d="M16.4059 11.2495C16.268 11.2495 16.1562 11.3615 16.1562 11.4997C16.1562 11.6378 16.268 11.7498 16.4059 11.7498C16.5438 11.7498 16.6555 11.6378 16.6555 11.4997C16.6555 11.3615 16.5438 11.2495 16.4059 11.2495" stroke="#6385FF" stroke-width="1.5"/>
</svg>
