<svg width="205" height="28" viewBox="0 0 205 28" fill="none" xmlns="http://www.w3.org/2000/svg">
<path d="M82.9981 0L78.8717 9.22L69.6484 10.69L76.3233 17.87L74.7453 28L82.9981 23.22L91.251 28L89.673 17.87L96.3478 10.7L87.1246 9.22L82.9981 0Z" fill="#FFB90A"/>
<path d="M48.1778 0L44.0514 9.22L34.8281 10.69L41.503 17.87L39.9249 28L48.1778 23.22L56.4307 28L54.8527 17.87L61.5275 10.7L52.3042 9.22L48.1778 0Z" fill="#FFB90A"/>
<path d="M13.3497 0L9.22326 9.22L0 10.69L6.67484 17.87L5.09682 28L13.3497 23.22L21.6026 28L20.0245 17.87L26.6994 10.7L17.4761 9.22L13.3497 0Z" fill="#FFB90A"/>
<path d="M117.826 0L113.7 9.22L104.477 10.69L111.151 17.87L109.573 28L117.826 23.22L126.079 28L124.501 17.87L131.176 10.7L121.953 9.22L117.826 0Z" fill="#FFB90A"/>
<path d="M152.647 0L148.52 9.22L139.297 10.69L145.972 17.87L144.394 28L152.647 23.22L160.899 28L159.321 17.87L165.996 10.7L156.773 9.22L152.647 0Z" fill="url(#paint0_linear_2281_23908)"/>
<path d="M193 8.5C188 8.5 183.73 11.61 182 16C183.73 20.39 188 23.5 193 23.5C198 23.5 202.27 20.39 204 16C202.27 11.61 198 8.5 193 8.5ZM193 21C190.24 21 188 18.76 188 16C188 13.24 190.24 11 193 11C195.76 11 198 13.24 198 16C198 18.76 195.76 21 193 21ZM193 13C191.34 13 190 14.34 190 16C190 17.66 191.34 19 193 19C194.66 19 196 17.66 196 16C196 14.34 194.66 13 193 13Z" fill="#1F87FE"/>
<defs>
<linearGradient id="paint0_linear_2281_23908" x1="132.042" y1="14" x2="170.585" y2="14" gradientUnits="userSpaceOnUse">
<stop offset="0.546875" stop-color="#FFB90A"/>
<stop offset="0.546975" stop-color="#BDBDBD"/>
</linearGradient>
</defs>
</svg>
