<svg width="25" height="24" viewBox="0 0 25 24" fill="none" xmlns="http://www.w3.org/2000/svg">
<path d="M15.7396 14H14.9513L14.6719 13.73C15.6498 12.59 16.2386 11.11 16.2386 9.5C16.2386 5.91 13.3346 3 9.75211 3C6.16958 3 3.26562 5.91 3.26562 9.5C3.26562 13.09 6.16958 16 9.75211 16C11.3588 16 12.8357 15.41 13.9733 14.43L14.2428 14.71V15.5L19.2324 20.49L20.7193 19L15.7396 14V14ZM9.75211 14C7.26729 14 5.26147 11.99 5.26147 9.5C5.26147 7.01 7.26729 5 9.75211 5C12.2369 5 14.2428 7.01 14.2428 9.5C14.2428 11.99 12.2369 14 9.75211 14Z" fill="#9CA3AF"/>
</svg>
