<svg width="24" height="24" viewBox="0 0 24 24" fill="none" xmlns="http://www.w3.org/2000/svg">
<path d="M21.6826 18.7033C21.3196 19.5418 20.89 20.3136 20.3923 21.0232C19.7138 21.9906 19.1582 22.6602 18.7301 23.032C18.0664 23.6424 17.3553 23.955 16.5939 23.9728C16.0472 23.9728 15.388 23.8172 14.6206 23.5017C13.8507 23.1876 13.1432 23.032 12.4962 23.032C11.8177 23.032 11.09 23.1876 10.3117 23.5017C9.53216 23.8172 8.90418 23.9816 8.42404 23.9979C7.69385 24.0291 6.96602 23.7076 6.23952 23.032C5.77583 22.6276 5.19585 21.9343 4.50106 20.9521C3.7556 19.9033 3.14273 18.687 2.6626 17.3004C2.14839 15.8026 1.89062 14.3523 1.89062 12.9482C1.89062 11.3398 2.23817 9.95259 2.9343 8.79011C3.48139 7.85636 4.20922 7.11979 5.12015 6.57906C6.03108 6.03834 7.01535 5.76279 8.07532 5.74516C8.6553 5.74516 9.41587 5.92456 10.361 6.27715C11.3035 6.63091 11.9087 6.81031 12.174 6.81031C12.3724 6.81031 13.0446 6.60054 14.1843 6.18233C15.262 5.79449 16.1716 5.63391 16.9168 5.69716C18.936 5.86012 20.453 6.6561 21.4618 8.09013C19.656 9.18432 18.7627 10.7169 18.7805 12.6829C18.7967 14.2142 19.3523 15.4886 20.4441 16.5004C20.9389 16.97 21.4915 17.333 22.1063 17.5907C21.9729 17.9774 21.8322 18.3477 21.6826 18.7033V18.7033ZM17.0516 0.480137C17.0516 1.68041 16.6131 2.8011 15.7391 3.8384C14.6843 5.07155 13.4085 5.78412 12.025 5.67168C12.0073 5.52769 11.9971 5.37614 11.9971 5.21688C11.9971 4.06462 12.4987 2.83147 13.3895 1.82321C13.8342 1.3127 14.3999 0.888228 15.0858 0.549615C15.7702 0.216055 16.4176 0.031589 17.0264 0C17.0442 0.160458 17.0516 0.320926 17.0516 0.480121V0.480137Z" fill="#272D37"/>
</svg>
