<svg width="24" height="24" viewBox="0 0 24 24" fill="none" xmlns="http://www.w3.org/2000/svg">
<g clip-path="url(#clip0_3965_18056)">
<path d="M16.8503 0H7.14973C3.20735 0 0 3.20735 0 7.14973V16.8503C0 20.7926 3.20735 24 7.14973 24H16.8503C20.7926 24 24 20.7926 24 16.8503V7.14973C24 3.20735 20.7926 0 16.8503 0ZM21.5856 16.8503C21.5856 19.4655 19.4655 21.5856 16.8503 21.5856H7.14973C4.5345 21.5856 2.4144 19.4655 2.4144 16.8503V7.14973C2.4144 4.53446 4.5345 2.4144 7.14973 2.4144H16.8503C19.4655 2.4144 21.5856 4.53446 21.5856 7.14973V16.8503Z" fill="#272D37"/>
<path d="M11.9963 5.79297C8.57363 5.79297 5.78906 8.57754 5.78906 12.0002C5.78906 15.4228 8.57363 18.2074 11.9963 18.2074C15.419 18.2074 18.2036 15.4229 18.2036 12.0002C18.2036 8.57749 15.419 5.79297 11.9963 5.79297ZM11.9963 15.7931C9.90156 15.7931 8.20346 14.095 8.20346 12.0002C8.20346 9.90547 9.90161 8.20737 11.9963 8.20737C14.0911 8.20737 15.7892 9.90547 15.7892 12.0002C15.7892 14.0949 14.091 15.7931 11.9963 15.7931Z" fill="#272D37"/>
<path d="M18.2217 7.32673C19.0432 7.32673 19.7091 6.66083 19.7091 5.83939C19.7091 5.01796 19.0432 4.35205 18.2217 4.35205C17.4003 4.35205 16.7344 5.01796 16.7344 5.83939C16.7344 6.66083 17.4003 7.32673 18.2217 7.32673Z" fill="#272D37"/>
</g>
<defs>
<clipPath id="clip0_3965_18056">
<rect width="24" height="24" fill="white"/>
</clipPath>
</defs>
</svg>
