<svg width="24" height="24" viewBox="0 0 24 24" fill="none" xmlns="http://www.w3.org/2000/svg">
<g clip-path="url(#clip0_3965_18048)">
<path d="M23.7604 12.2763C23.7604 11.4605 23.6943 10.6404 23.5532 9.83789H12.2344V14.4589H18.7161C18.4471 15.9492 17.5829 17.2676 16.3174 18.1054V21.1037H20.1844C22.4552 19.0137 23.7604 15.9272 23.7604 12.2763Z" fill="#272D37"/>
<path d="M12.2313 24.0003C15.4678 24.0003 18.1971 22.9377 20.1858 21.1034L16.3188 18.1051C15.2429 18.837 13.8539 19.2515 12.2357 19.2515C9.1051 19.2515 6.45068 17.1394 5.49826 14.2998H1.50781V17.3907C3.54492 21.4429 7.69411 24.0003 12.2313 24.0003V24.0003Z" fill="#272D37"/>
<path d="M5.49691 14.3002C4.99425 12.8099 4.99425 11.196 5.49691 9.70569V6.61475H1.51088C-0.191126 10.0055 -0.191126 14.0004 1.51088 17.3912L5.49691 14.3002V14.3002Z" fill="#272D37"/>
<path d="M12.2313 4.74966C13.9421 4.7232 15.5956 5.36697 16.8347 6.54867L20.2607 3.12262C18.0913 1.0855 15.212 -0.034466 12.2313 0.000808666C7.69411 0.000808666 3.54492 2.55822 1.50781 6.61481L5.49385 9.70575C6.44186 6.86173 9.10068 4.74966 12.2313 4.74966V4.74966Z" fill="#272D37"/>
</g>
<defs>
<clipPath id="clip0_3965_18048">
<rect width="24" height="24" fill="white"/>
</clipPath>
</defs>
</svg>
